REM DIRINDEX 1\5,1\2\6,1\2\7,1\3\8,1\3\9,1\4\10,1\4\11,1\4\12
REM DIRNAME cjc026,folder01,folder02,folder03,folder04,folder05,folder06,folder07,folder08,folder09,folder10,folder11
TITLE ""
FILE "EJE_DB3000_5th_2A_37.mp3" MP3
  TRACK 01 AUDIO
    TITLE "0:"
    INDEX 01 00:00:00
  TRACK 02 AUDIO
    TITLE "10:cjc026_07869"
    INDEX 01 00:00:08
  TRACK 03 AUDIO
    TITLE "0:"
    INDEX 01 00:01:16
  TRACK 04 AUDIO
    TITLE "11:cjc026_07870"
    INDEX 01 00:01:51
  TRACK 05 AUDIO
    TITLE "0:"
    INDEX 01 00:03:01
  TRACK 06 AUDIO
    TITLE "12:cjc026_07871"
    INDEX 01 00:03:36
  TRACK 07 AUDIO
    TITLE "0:"
    INDEX 01 00:04:45
  TRACK 08 AUDIO
    TITLE "10:cjc026_07872"
    INDEX 01 00:05:08
  TRACK 09 AUDIO
    TITLE "0:"
    INDEX 01 00:06:22
  TRACK 10 AUDIO
    TITLE "11:cjc026_07873"
    INDEX 01 00:06:57
  TRACK 11 AUDIO
    TITLE "0:"
    INDEX 01 00:07:71
  TRACK 12 AUDIO
    TITLE "12:cjc026_07874"
    INDEX 01 00:08:34
  TRACK 13 AUDIO
    TITLE "0:"
    INDEX 01 00:09:48
  TRACK 14 AUDIO
    TITLE "10:cjc026_07875"
    INDEX 01 00:10:08
  TRACK 15 AUDIO
    TITLE "0:"
    INDEX 01 00:11:20
  TRACK 16 AUDIO
    TITLE "11:cjc026_07876"
    INDEX 01 00:11:57
  TRACK 17 AUDIO
    TITLE "0:"
    INDEX 01 00:12:69
  TRACK 18 AUDIO
    TITLE "12:cjc026_07877"
    INDEX 01 00:13:29
  TRACK 19 AUDIO
    TITLE "0:"
    INDEX 01 00:14:38
  TRACK 20 AUDIO
    TITLE "10:cjc026_07878"
    INDEX 01 00:15:03
  TRACK 21 AUDIO
    TITLE "0:"
    INDEX 01 00:16:09
  TRACK 22 AUDIO
    TITLE "11:cjc026_07879"
    INDEX 01 00:16:47
  TRACK 23 AUDIO
    TITLE "0:"
    INDEX 01 00:17:69
  TRACK 24 AUDIO
    TITLE "12:cjc026_07880"
    INDEX 01 00:18:29
  TRACK 25 AUDIO
    TITLE "0:"
    INDEX 01 00:19:35
  TRACK 26 AUDIO
    TITLE "10:cjc026_07881"
    INDEX 01 00:20:01
  TRACK 27 AUDIO
    TITLE "0:"
    INDEX 01 00:21:07
  TRACK 28 AUDIO
    TITLE "11:cjc026_07882"
    INDEX 01 00:21:47
  TRACK 29 AUDIO
    TITLE "0:"
    INDEX 01 00:22:67
  TRACK 30 AUDIO
    TITLE "12:cjc026_07883"
    INDEX 01 00:23:30
  TRACK 31 AUDIO
    TITLE "0:"
    INDEX 01 00:24:36
  TRACK 32 AUDIO
    TITLE "10:cjc026_07884"
    INDEX 01 00:25:04
  TRACK 33 AUDIO
    TITLE "0:"
    INDEX 01 00:26:26
  TRACK 34 AUDIO
    TITLE "11:cjc026_07885"
    INDEX 01 00:26:66
  TRACK 35 AUDIO
    TITLE "0:"
    INDEX 01 00:28:19
  TRACK 36 AUDIO
    TITLE "12:cjc026_07886"
    INDEX 01 00:28:57
  TRACK 37 AUDIO
    TITLE "0:"
    INDEX 01 00:30:04
  TRACK 38 AUDIO
    TITLE "10:cjc026_07887"
    INDEX 01 00:30:45
  TRACK 39 AUDIO
    TITLE "0:"
    INDEX 01 00:31:64
  TRACK 40 AUDIO
    TITLE "11:cjc026_07888"
    INDEX 01 00:32:27
  TRACK 41 AUDIO
    TITLE "0:"
    INDEX 01 00:33:38
  TRACK 42 AUDIO
    TITLE "12:cjc026_07889"
    INDEX 01 00:33:73
  TRACK 43 AUDIO
    TITLE "0:"
    INDEX 01 00:35:18
  TRACK 44 AUDIO
    TITLE "10:cjc026_07890"
    INDEX 01 00:35:56
  TRACK 45 AUDIO
    TITLE "0:"
    INDEX 01 00:37:00
  TRACK 46 AUDIO
    TITLE "11:cjc026_07891"
    INDEX 01 00:37:35
  TRACK 47 AUDIO
    TITLE "0:"
    INDEX 01 00:38:55
  TRACK 48 AUDIO
    TITLE "12:cjc026_07892"
    INDEX 01 00:39:15
  TRACK 49 AUDIO
    TITLE "0:"
    INDEX 01 00:40:34
  TRACK 50 AUDIO
    TITLE "10:cjc026_07893"
    INDEX 01 00:40:69
  TRACK 51 AUDIO
    TITLE "0:"
    INDEX 01 00:42:03
  TRACK 52 AUDIO
    TITLE "11:cjc026_07894"
    INDEX 01 00:42:38
  TRACK 53 AUDIO
    TITLE "0:"
    INDEX 01 00:43:44
  TRACK 54 AUDIO
    TITLE "12:cjc026_07895"
    INDEX 01 00:44:02
  TRACK 55 AUDIO
    TITLE "0:"
    INDEX 01 00:45:10
  TRACK 56 AUDIO
    TITLE "10:cjc026_07896"
    INDEX 01 00:45:45
  TRACK 57 AUDIO
    TITLE "0:"
    INDEX 01 00:46:62
  TRACK 58 AUDIO
    TITLE "11:cjc026_07897"
    INDEX 01 00:47:22
  TRACK 59 AUDIO
    TITLE "0:"
    INDEX 01 00:48:50
  TRACK 60 AUDIO
    TITLE "12:cjc026_07898"
    INDEX 01 00:49:10
  TRACK 61 AUDIO
    TITLE "0:"
    INDEX 01 00:50:24
  TRACK 62 AUDIO
    TITLE "10:cjc026_07899"
    INDEX 01 00:50:59
  TRACK 63 AUDIO
    TITLE "0:"
    INDEX 01 00:51:73
  TRACK 64 AUDIO
    TITLE "11:cjc026_07900"
    INDEX 01 00:52:33
  TRACK 65 AUDIO
    TITLE "0:"
    INDEX 01 00:53:48
  TRACK 66 AUDIO
    TITLE "12:cjc026_07901"
    INDEX 01 00:54:10
  TRACK 67 AUDIO
    TITLE "0:"
    INDEX 01 00:55:22
